{"accessors":[{"bufferView":0,"componentType":5126,"count":528,"max":[0.488206803798676,0.200000002980232,0.492259204387665],"min":[-0.660596787929535,-0.594602644443512,-0.580619275569916],"normalized":false,"type":"VEC3"},{"bufferView":1,"componentType":5126,"count":528,"max":[0.0,0.0,0.0000763009302318096,-1.0],"min":[-1.0,-1.0,-1.0,-1.0],"normalized":false,"type":"VEC4"},{"bufferView":2,"componentType":5126,"count":528,"max":[1.0,1.0,1.0],"min":[-1.0,-1.0,-1.0],"normalized":false,"type":"VEC3"},{"bufferView":3,"componentType":5126,"count":528,"max":[1.0,1.0],"min":[0.0,0.0],"normalized":false,"type":"VEC2"},{"bufferView":4,"componentType":5123,"count":528,"max":[527.0],"min":[0.0],"normalized":false,"type":"SCALAR"}],"asset":{"generator":"Godot Engine v4.5.1.stable.official@f62fdbde15035c5576dad93e586201f4d41ef0cb","version":"2.0"},"bufferViews":[{"buffer":0,"byteLength":6336,"byteStride":12,"target":34962},{"buffer":0,"byteLength":8448,"byteOffset":6336,"byteStride":16,"target":34962},{"buffer":0,"byteLength":6336,"byteOffset":14784,"byteStride":12,"target":34962},{"buffer":0,"byteLength":4224,"byteOffset":21120,"byteStride":8,"target":34962},{"buffer":0,"byteLength":1056,"byteOffset":25344,"target":34963}],"buffers":[{"byteLength":26400,"uri":"rock_wall_model0.bin"}],"extensionsUsed":["GODOT_single_root"],"images":[{"uri":"textures%2F_albedo.png"}],"materials":[{"extensions":{},"pbrMetallicRoughness":{"baseColorFactor":[0.407619953155518,0.0622830018401146,0.0170433800667524,1.0],"baseColorTexture":{"index":0},"metallicFactor":0.0,"roughnessFactor":1.0}}],"meshes":[{"primitives":[{"attributes":{"NORMAL":2,"POSITION":0,"TANGENT":1,"TEXCOORD_0":3},"indices":4,"material":0,"mode":4}]}],"nodes":[{"children":[1],"name":"Node3D"},{"children":[2,3,4,5,6,7,8,9,10],"mesh":0,"name":"RockWall2"},{"name":"CSGBox3D"},{"name":"CSGBox3D2","translation":[0.288206815719604,-0.3131263256073,0.0]},{"name":"CSGBox3D3","translation":[-0.0546388626098633,-0.3131263256073,0.292259216308594]},{"name":"CSGBox3D4","translation":[0.184324264526367,-0.3131263256073,0.292259216308594]},{"name":"CSGBox3D5","translation":[-0.37372612953186,-0.3131263256073,0.292259216308594]},{"name":"CSGBox3D6","translation":[-0.37372612953186,-0.337389707565308,-0.236522436141968]},{"name":"CSGBox3D7","translation":[-0.0551280975341797,-0.337389707565308,-0.380619287490845]},{"name":"CSGBox3D8","translation":[-0.291915416717529,-0.0959630012512207,-0.380619287490845]},{"name":"CSGBox3D9","translation":[-0.460596799850464,-0.394602656364441,-0.380619287490845]}],"samplers":[{"magFilter":9729,"minFilter":9987,"wrapS":10497,"wrapT":10497}],"scene":0,"scenes":[{"nodes":[0]}],"textures":[{"sampler":0,"source":0}]}